<svg xmlns="http://www.w3.org/2000/svg" viewBox="0 0 100 100.67"><defs><style>.cls-1{fill:#23c449;}</style></defs><title>icon</title><g id="Layer_1" data-name="Layer 1"><path class="cls-1" d="M66.5,2.5A31,31,0,0,0,35.6,30.9a32,32,0,0,1,6.2.9A24.73,24.73,0,1,1,68.2,58.1a32,32,0,0,1,.9,6.2A31,31,0,0,0,66.5,2.5Z"/><path class="cls-1" d="M78.9,34.1V33a1.79,1.79,0,0,0-1.8-1.8H68.3L64.7,16.4a1.78,1.78,0,0,0-2.2-1.3l-1.1.3a1.72,1.72,0,0,0-1.3,2.1l4.2,17A1.81,1.81,0,0,0,66,35.9H77.1A1.93,1.93,0,0,0,78.9,34.1Z"/><path class="cls-1" d="M33.5,35.6a31,31,0,1,0,31,31A31,31,0,0,0,33.5,35.6Zm2,46.6v3.5a.43.43,0,0,1-.4.4H32.3a.43.43,0,0,1-.4-.4V82.2a13.66,13.66,0,0,1-8.3-3.8.47.47,0,0,1-.1-.6L26,74.3a.47.47,0,0,1,.6-.1,12.21,12.21,0,0,0,7.3,2.9c2.3,0,4.4-1.2,4.4-3.7,0-5.2-14.6-4.7-14.6-13.9,0-4.4,3.3-7.9,8.1-8.7V47.2a.43.43,0,0,1,.4-.4H35a.43.43,0,0,1,.4.4v3.5a12.61,12.61,0,0,1,7.3,2.9.35.35,0,0,1,.1.5l-2,3.7a.47.47,0,0,1-.7.1,11.12,11.12,0,0,0-6.4-2.3c-2.6,0-4.6,1.5-4.6,3.7,0,5.1,14.5,4.2,14.5,13.9C43.8,77.8,40.7,81.5,35.5,82.2Z"/></g></svg>