<?xml version="1.0" encoding="utf-8"?>
<!-- Generator: Adobe Illustrator 23.1.1, SVG Export Plug-In . SVG Version: 6.00 Build 0)  -->
<svg version="1.1" xmlns="http://www.w3.org/2000/svg" xmlns:xlink="http://www.w3.org/1999/xlink" x="0px" y="0px"
	 viewBox="0 0 100 100.7" style="enable-background:new 0 0 100 100.7;" xml:space="preserve">
<style type="text/css">
	.st0{fill:#A5A5A5;}
	.st1{fill:#23C449;}
</style>
<g id="Layer_2">
</g>
<g id="Layer_1">
	<g>
		<path class="st0" d="M174.8,2.5c-16.3,0-29.6,12.5-30.9,28.4c2.1,0.1,4.2,0.4,6.2,0.9c0.9-12.8,11.6-23,24.7-23
			c13.6,0,24.7,11.1,24.7,24.7c0,13-10.2,23.7-23,24.6c0.5,2,0.8,4.1,0.9,6.2c15.9-1.3,28.3-14.7,28.3-30.8
			C205.7,16.4,191.8,2.5,174.8,2.5z"/>
		<path class="st0" d="M187.2,34.1V33c0-1-0.8-1.8-1.8-1.8h-8.8L173,16.4c-0.2-1-1.2-1.5-2.2-1.3l-1.1,0.3c-1,0.2-1.5,1.2-1.3,2.1
			l4.2,17c0.2,0.8,0.9,1.4,1.7,1.4h11.1C186.4,35.8,187.2,35,187.2,34.1z"/>
		<path class="st0" d="M141.8,35.6c-17.1,0-31,13.9-31,31s13.9,31,31,31s31-13.9,31-31S158.9,35.6,141.8,35.6z M143.8,82.2v3.5
			c0,0.2-0.2,0.4-0.4,0.4h-2.8c-0.2,0-0.4-0.2-0.4-0.4v-3.5c-4.6-0.5-7.5-2.9-8.3-3.8c-0.2-0.2-0.2-0.4-0.1-0.6l2.5-3.5
			c0.2-0.2,0.4-0.2,0.6-0.1c1,0.8,3.8,2.9,7.3,2.9c2.3,0,4.4-1.2,4.4-3.7c0-5.2-14.6-4.7-14.6-13.9c0-4.4,3.3-7.9,8.1-8.7v-3.6
			c0-0.2,0.2-0.4,0.4-0.4h2.8c0.2,0,0.4,0.2,0.4,0.4v3.5c4.1,0.4,6.6,2.2,7.3,2.9c0.2,0.1,0.2,0.4,0.1,0.5l-2,3.7
			c-0.1,0.2-0.4,0.3-0.7,0.1c-0.9-0.7-3.4-2.3-6.4-2.3c-2.6,0-4.6,1.5-4.6,3.7c0,5.1,14.5,4.2,14.5,13.9
			C152.1,77.8,149,81.5,143.8,82.2z"/>
	</g>
	<g>
		<path class="st1" d="M66.5,2.5C50.2,2.5,36.9,15,35.6,30.9c2.1,0.1,4.2,0.4,6.2,0.9c0.9-12.8,11.6-23,24.7-23
			c13.6,0,24.7,11.1,24.7,24.7c0,13-10.2,23.7-23,24.6c0.5,2,0.8,4.1,0.9,6.2C85,63,97.4,49.6,97.4,33.5
			C97.4,16.4,83.5,2.5,66.5,2.5z"/>
		<path class="st1" d="M78.9,34.1V33c0-1-0.8-1.8-1.8-1.8h-8.8l-3.6-14.8c-0.2-1-1.2-1.5-2.2-1.3l-1.1,0.3c-1,0.2-1.5,1.2-1.3,2.1
			l4.2,17c0.2,0.8,0.9,1.4,1.7,1.4h11.1C78.1,35.8,78.9,35,78.9,34.1z"/>
		<path class="st1" d="M33.5,35.6c-17.1,0-31,13.9-31,31s13.9,31,31,31s31-13.9,31-31S50.6,35.6,33.5,35.6z M35.5,82.2v3.5
			c0,0.2-0.2,0.4-0.4,0.4h-2.8c-0.2,0-0.4-0.2-0.4-0.4v-3.5c-4.6-0.5-7.5-2.9-8.3-3.8c-0.2-0.2-0.2-0.4-0.1-0.6l2.5-3.5
			c0.2-0.2,0.4-0.2,0.6-0.1c1,0.8,3.8,2.9,7.3,2.9c2.3,0,4.4-1.2,4.4-3.7c0-5.2-14.6-4.7-14.6-13.9c0-4.4,3.3-7.9,8.1-8.7v-3.6
			c0-0.2,0.2-0.4,0.4-0.4H35c0.2,0,0.4,0.2,0.4,0.4v3.5c4.1,0.4,6.6,2.2,7.3,2.9c0.2,0.1,0.2,0.4,0.1,0.5l-2,3.7
			c-0.1,0.2-0.4,0.3-0.7,0.1c-0.9-0.7-3.4-2.3-6.4-2.3c-2.6,0-4.6,1.5-4.6,3.7c0,5.1,14.5,4.2,14.5,13.9
			C43.8,77.8,40.7,81.5,35.5,82.2z"/>
	</g>
</g>
</svg>
