<?xml version="1.0" encoding="utf-8"?>
<svg version="1.1" id="Layer_1" xmlns="http://www.w3.org/2000/svg" xmlns:xlink="http://www.w3.org/1999/xlink" x="0px" y="0px"
	 viewBox="0 0 100 100.7" style="enable-background:new 0 0 100 100.7;" xml:space="preserve">
<style type="text/css">
	.st0{fill:#FFFFFF;}
</style>
<path class="st0" d="M44.4,4.9C22.7,4.9,5.1,22.5,5.1,44.1c0,21.6,17.6,39.3,39.3,39.3c1.7,0,3.4-0.2,5.2-0.4
	c4.2,7.6,12.4,12.8,21.7,12.8C84.9,95.8,96,84.7,96,71c0-9.3-5.2-17.5-12.8-21.7c0.2-1.8,0.4-3.5,0.4-5.2C83.7,22.5,66,4.9,44.4,4.9
	z M44.4,17.3c1.1,0,2.1,0.9,2.1,2.1v24.8c0,0.5-0.2,1.1-0.6,1.5L33.5,58c-0.4,0.4-0.9,0.6-1.5,0.6c-0.5,0-1.1-0.2-1.5-0.6
	c-0.8-0.8-0.8-2.1,0-2.9l11.8-11.8V19.3C42.3,18.2,43.3,17.3,44.4,17.3z M71.3,50.3c11.4,0,20.7,9.3,20.7,20.7s-9.3,20.7-20.7,20.7
	c-11.4,0-20.7-9.3-20.7-20.7C50.6,59.6,59.9,50.3,71.3,50.3z M71.1,58.6c-0.8,0-1.4,0.6-1.4,1.4v1.5c-2.4,0.4-4.3,2.4-4.3,5
	c0,2.8,2.3,5.1,5.1,5.1h1.4c1.2,0,2.2,1,2.2,2.2c0,1-0.7,1.9-1.7,2.1c0-0.5,0-0.8,0-1.2c0-1.6-2.7-1.7-2.7,0c0,1.3,0,1.1,0,1.3
	l-2.9-1.1c-0.7-0.3-1.4,0.6-1.4,1.4s0.7,1.2,1.4,1.4l2.9,1.1v1.4c0,0.8,0.6,1.4,1.4,1.4c0.8,0,1.4-0.6,1.4-1.4v-1.5
	c2.4-0.4,4.3-2.4,4.3-5c0-2.8-2.3-5.1-5.1-5.1h-1.4c-1.2,0-2.2-1-2.2-2.2c0-1,0.7-1.9,1.7-2.1c0,0.4,0,1.5,0,1.9
	c0,1.5,2.6,1.4,2.6,0c0-0.5,0-1.5,0-1.9l2.7,0.8c0.8,0.2,1.4-0.6,1.4-1.4c0-0.8-0.7-1.2-1.4-1.4l-2.7-0.8v-1.4
	C72.6,59.3,71.9,58.6,71.1,58.6L71.1,58.6z"/>
</svg>
