<?xml version="1.0" encoding="UTF-8"?>
<svg width="48px" height="48px" viewBox="0 0 48 48" version="1.1" xmlns="http://www.w3.org/2000/svg" xmlns:xlink="http://www.w3.org/1999/xlink">
    <!-- Generator: Sketch 54 (76480) - https://sketchapp.com -->
    <title>icon</title>
    <desc>Created with Sketch.</desc>
    <g id="Landing" stroke="none" stroke-width="1" fill="none" fill-rule="evenodd">
        <g id="icon48" fill="#A2E15A" fill-rule="nonzero">
            <path d="M20.745098,0 C9.29411765,0 0,9.28653061 0,20.6889796 C0,32.0914286 9.29411765,41.4563265 20.745098,41.4563265 C21.6470588,41.4563265 22.5490196,41.3387755 23.4901961,41.2604082 C25.7254902,45.2571429 30.0392157,48 34.9411765,48 C42.1176471,48 48,42.122449 48,34.9126531 C48,30.0146939 45.254902,25.6653061 41.254902,23.4710204 C41.372549,22.5306122 41.4509804,21.6293878 41.4509804,20.7281633 C41.5294118,9.28653061 32.1568627,0 20.745098,0 Z M21.6633072,6.85714286 C22.2008212,6.85714286 22.6666667,7.3307297 22.6666667,7.96217883 L22.6666667,21.1436793 C22.6666667,21.4199383 22.5591639,21.7356629 22.3799925,21.9329908 L16.39567,28.4842754 C16.2164987,28.6816033 15.9656588,28.8 15.6789847,28.8 C15.4281448,28.8 15.1414707,28.6816033 14.9622994,28.4842754 C14.5681224,28.0501542 14.5681224,27.3792395 14.9622994,26.9451182 L20.6599477,20.6700925 L20.6599477,7.92271326 C20.6599477,7.3307297 21.1257932,6.85714286 21.6633072,6.85714286 Z M35.3333333,23.3142857 C41.5890084,23.3142857 46.6666667,28.2298003 46.6666667,34.2857143 C46.6666667,40.3416283 41.5890084,45.2571429 35.3333333,45.2571429 C29.0776583,45.2571429 24,40.3416283 24,34.2857143 C24,28.2298003 29.0776583,23.3142857 35.3333333,23.3142857 Z M35.311828,27.4285714 C34.8387097,27.4285714 34.4946237,27.7460726 34.4946237,28.1826367 L34.4946237,28.9763895 C33.1182796,29.1748277 32,30.2463941 32,31.6354616 C32,33.1435921 33.3333333,34.373909 34.9677419,34.373909 L35.7849462,34.373909 C36.4731183,34.373909 37.0752688,34.8898484 37.0752688,35.5645384 C37.0752688,36.0804777 36.688172,36.5964171 36.0860215,36.6757924 C36.0860215,36.3979789 36.0860215,36.2392283 36.0860215,36.0407901 C36.0860215,35.1676619 34.5376344,35.1279743 34.5376344,36.0407901 C34.5376344,36.7551677 34.5376344,36.6361047 34.5376344,36.7551677 L32.8602151,36.159853 C32.4731183,36.0011024 32.0430108,36.4773542 32.0430108,36.9139182 C32.0430108,37.3504823 32.4301075,37.5489205 32.8602151,37.6679835 L34.5376344,38.2632981 L34.5376344,39.0173633 C34.5376344,39.4539274 34.8817204,39.7714286 35.3548387,39.7714286 C35.827957,39.7714286 36.172043,39.4539274 36.172043,39.0173633 L36.172043,38.2236105 C37.5483871,38.0251723 38.6666667,36.9536059 38.6666667,35.5645384 C38.6666667,34.0564079 37.3333333,32.826091 35.6989247,32.826091 L34.8817204,32.826091 C34.1935484,32.826091 33.5913978,32.3101516 33.5913978,31.6354616 C33.5913978,31.1195223 33.9784946,30.6035829 34.5806452,30.5242076 C34.5806452,30.7226458 34.5806452,31.3179605 34.5806452,31.5560864 C34.5806452,32.3498392 36.0860215,32.3101516 36.0860215,31.5560864 C36.0860215,31.2782729 36.0860215,30.7623335 36.0860215,30.5242076 L37.6344086,30.9607717 C38.1075269,31.0798346 38.4516129,30.6432706 38.4516129,30.2067065 C38.4516129,29.7701424 38.0645161,29.5717042 37.6344086,29.4526412 L36.0860215,29.0160772 L36.0860215,28.2620119 C36.172043,27.7857602 35.7849462,27.4285714 35.311828,27.4285714 L35.311828,27.4285714 Z" id="icon"></path>
        </g>
    </g>
</svg>